<?xml version="1.0" encoding="UTF-8"?>
<svg id="Layer_2" data-name="Layer 2" xmlns="http://www.w3.org/2000/svg" viewBox="0 0 69.63 22.12">
  <defs>
    <style>
      .cls-1 {
        stroke-width: 0px;
      }
    </style>
  </defs>
  <g id="Layer_1-2" data-name="Layer 1">
    <g>
      <path class="cls-1" d="M2.89,5.83l.4,12.36,5.68-12.36h2.96l.47,12.29,5.82-12.29h2.64l-7.88,15.69h-2.74l-.62-12.14-5.67,12.14H1.2L0,5.83h2.89Z"/>
      <path class="cls-1" d="M33.79,13.34c-.54,2.53-1.6,4.62-3.18,6.27s-3.67,2.48-6.25,2.48c-2.16,0-3.72-.73-4.67-2.19-.96-1.46-1.18-3.42-.66-5.88.57-2.64,1.68-4.74,3.35-6.3s3.63-2.34,5.89-2.34c2.02,0,3.59.67,4.69,2.02s1.38,3.33.83,5.95ZM31.02,13.42c.31-1.46.33-2.66.06-3.57-.44-1.45-1.57-2.17-3.38-2.17-1.61,0-2.91.62-3.9,1.85s-1.67,2.71-2.04,4.45c-.35,1.67-.28,3.06.21,4.17s1.54,1.67,3.13,1.67c1.75,0,3.09-.66,4.02-1.98s1.57-2.8,1.91-4.42Z"/>
      <path class="cls-1" d="M37.09,5.83h2.5l-.57,2.71c.31-.53.95-1.17,1.91-1.93s1.97-1.14,3.01-1.14c.05,0,.13,0,.25.01s.31.03.59.06l-.59,2.78c-.16-.03-.3-.05-.42-.06s-.27-.01-.42-.01c-1.33,0-2.44.43-3.33,1.28s-1.46,1.84-1.71,2.95l-1.9,9.02h-2.64l3.33-15.69Z"/>
      <path class="cls-1" d="M46.7,0h2.53l-2.67,12.5,8.19-6.67h3.37l-7.25,5.87,4.26,9.81h-3.37l-3.22-7.91-2.64,2.02-1.25,5.89h-2.53L46.7,0Z"/>
      <path class="cls-1" d="M58.29,16.6c-.11.88-.03,1.55.23,2.02.48.85,1.54,1.27,3.18,1.27.98,0,1.88-.21,2.72-.64.83-.42,1.35-1.08,1.53-1.97.15-.67-.04-1.19-.57-1.54-.33-.21-1.03-.46-2.09-.75l-1.98-.53c-1.27-.33-2.18-.7-2.72-1.11-.99-.71-1.34-1.7-1.07-2.96.31-1.48,1.1-2.69,2.37-3.6s2.8-1.38,4.61-1.38c2.36,0,3.92.69,4.67,2.08.47.88.59,1.83.35,2.84h-2.49c.08-.6-.02-1.14-.29-1.63-.46-.69-1.44-1.04-2.93-1.04-1,0-1.79.19-2.38.57s-.95.88-1.09,1.51c-.15.68.07,1.23.66,1.64.34.24.87.46,1.6.64l1.66.42c1.8.46,2.97.9,3.53,1.33.88.67,1.16,1.73.85,3.18-.29,1.4-1.08,2.6-2.35,3.62s-3,1.52-5.16,1.52c-2.33,0-3.87-.53-4.62-1.59-.75-1.06-.99-2.37-.73-3.93h2.53Z"/>
    </g>
  </g>
</svg>