<?xml version="1.0" encoding="UTF-8"?>
<svg id="Layer_2" data-name="Layer 2" xmlns="http://www.w3.org/2000/svg" viewBox="0 0 561.47 302.01">
  <defs>
    <style>
      .cls-1 {
        fill: #fff;
        stroke-width: 0px;
      }
    </style>
  </defs>
  <g id="Layer_1-2" data-name="Layer 1">
    <g>
      <g>
        <path class="cls-1" d="M19.8,100.43c.82,1.13,1.22,2.49,1.22,4.07s-.41,2.94-1.24,3.93c-.46.55-1.14,1.06-2.03,1.52,1.36.49,2.39,1.28,3.08,2.35s1.04,2.38,1.04,3.91-.4,3-1.19,4.25c-.5.83-1.13,1.53-1.89,2.1-.85.65-1.86,1.1-3.01,1.34-1.16.24-2.41.36-3.77.36H0v-26.67h12.89c3.25.05,5.56.99,6.91,2.84ZM5.32,102.22v5.88h6.48c1.16,0,2.1-.22,2.82-.66.72-.44,1.08-1.22,1.08-2.34,0-1.24-.48-2.06-1.43-2.46-.82-.28-1.87-.42-3.15-.42h-5.8ZM5.32,112.51v7.11h6.47c1.16,0,2.06-.16,2.7-.47,1.17-.58,1.75-1.69,1.75-3.33,0-1.39-.57-2.34-1.7-2.86-.63-.29-1.52-.44-2.66-.45h-6.56Z"/>
        <path class="cls-1" d="M44.54,102.31h-14.11v5.66h12.95v4.63h-12.95v6.86h14.76v4.79h-20.21v-26.67h19.56v4.72Z"/>
        <path class="cls-1" d="M65.24,98.28c.98.42,1.81,1.04,2.5,1.86.56.68,1.01,1.42,1.34,2.24s.49,1.75.49,2.8c0,1.27-.32,2.51-.96,3.74-.64,1.22-1.69,2.09-3.17,2.6,1.23.49,2.1,1.2,2.61,2.11.51.91.77,2.3.77,4.17v1.79c0,1.22.05,2.04.15,2.48.15.69.49,1.19,1.03,1.52v.67h-6.15c-.17-.59-.29-1.07-.36-1.43-.14-.75-.22-1.51-.24-2.3l-.04-2.48c-.02-1.7-.32-2.83-.88-3.4s-1.62-.85-3.17-.85h-5.44v10.46h-5.45v-26.67h12.76c1.82.04,3.23.27,4.21.69ZM53.72,102.22v7.16h6c1.19,0,2.08-.14,2.68-.43,1.05-.51,1.58-1.51,1.58-3,0-1.62-.51-2.7-1.53-3.26-.57-.31-1.43-.47-2.58-.47h-6.15Z"/>
        <path class="cls-1" d="M73.09,97.59h5.48v10.99l10.3-10.99h7.2l-10.94,10.97,11.5,15.7h-7.16l-8.22-11.64-2.68,2.72v8.92h-5.48v-26.67Z"/>
        <path class="cls-1" d="M117.73,102.31h-14.11v5.66h12.95v4.63h-12.95v6.86h14.76v4.79h-20.21v-26.67h19.56v4.72Z"/>
      </g>
      <path class="cls-1" d="M17.78,153.26h8.02v26.67h-5.19v-18.04c0-.52,0-1.25.02-2.18.01-.93.02-1.66.02-2.16l-5.05,22.38h-5.42l-5.02-22.38c0,.51,0,1.23.02,2.16.01.93.02,1.66.02,2.18v18.04H0v-26.67h8.11l4.85,20.97,4.82-20.97Z"/>
      <path class="cls-1" d="M28.89,153.26h5.66v16.38c0,1.83.22,3.17.65,4.01.67,1.49,2.14,2.24,4.4,2.24s3.71-.75,4.38-2.24c.43-.84.65-2.18.65-4.01v-16.38h5.66v16.39c0,2.83-.44,5.04-1.32,6.62-1.64,2.89-4.76,4.34-9.37,4.34s-7.74-1.45-9.39-4.34c-.88-1.58-1.32-3.79-1.32-6.62v-16.39Z"/>
      <path class="cls-1" d="M53.37,153.26h5.57v21.87h13.32v4.79h-18.89v-26.67Z"/>
      <path class="cls-1" d="M88.93,153.26v4.72h-7.98v21.95h-5.61v-21.95h-8.01v-4.72h21.6Z"/>
      <path class="cls-1" d="M97.55,179.92h-5.54v-26.67h5.54v26.67Z"/>
      <path class="cls-1" d="M116.26,153.83c1.87.62,3.39,1.74,4.54,3.38.93,1.33,1.56,2.76,1.9,4.31.34,1.54.51,3.02.51,4.41,0,3.55-.71,6.55-2.14,9.01-1.93,3.32-4.91,4.98-8.94,4.98h-11.5v-26.67h11.5c1.65.02,3.03.22,4.13.58ZM106.05,157.89v17.4h5.15c2.63,0,4.47-1.3,5.51-3.89.57-1.42.85-3.12.85-5.08,0-2.71-.43-4.8-1.28-6.25-.85-1.45-2.55-2.18-5.08-2.18h-5.15Z"/>
      <path class="cls-1" d="M131.84,179.92h-5.54v-26.67h5.54v26.67Z"/>
      <path class="cls-1" d="M140.24,171.69c.17,1.22.51,2.13,1.02,2.73.92,1.1,2.51,1.65,4.75,1.65,1.34,0,2.43-.14,3.27-.43,1.59-.55,2.38-1.59,2.38-3.09,0-.88-.39-1.56-1.17-2.04-.78-.47-2.01-.89-3.7-1.25l-2.89-.63c-2.84-.63-4.79-1.31-5.85-2.04-1.8-1.23-2.7-3.15-2.7-5.77,0-2.39.88-4.37,2.64-5.95,1.76-1.58,4.34-2.37,7.75-2.37,2.84,0,5.27.75,7.28,2.23,2.01,1.49,3.06,3.65,3.16,6.49h-5.36c-.1-1.6-.82-2.74-2.15-3.42-.89-.45-2-.67-3.32-.67-1.47,0-2.65.29-3.52.87s-1.32,1.39-1.32,2.42c0,.95.43,1.66,1.3,2.13.56.31,1.74.68,3.54,1.1l4.68,1.1c2.05.48,3.59,1.13,4.61,1.94,1.59,1.25,2.38,3.07,2.38,5.45s-.94,4.46-2.83,6.07c-1.88,1.61-4.54,2.42-7.98,2.42s-6.27-.79-8.28-2.38c-2.01-1.59-3.02-3.77-3.02-6.54h5.32Z"/>
      <path class="cls-1" d="M163.82,156.04c2.15-2.19,4.88-3.29,8.2-3.29,4.44,0,7.68,1.47,9.74,4.41,1.13,1.65,1.74,3.31,1.83,4.98h-5.57c-.35-1.28-.81-2.24-1.36-2.89-.99-1.16-2.46-1.74-4.41-1.74s-3.55.82-4.7,2.45c-1.15,1.63-1.72,3.95-1.72,6.94s.6,5.23,1.81,6.72c1.21,1.49,2.75,2.23,4.61,2.23s3.37-.64,4.37-1.92c.55-.69,1.01-1.72,1.38-3.09h5.54c-.48,2.91-1.7,5.27-3.66,7.09-1.96,1.82-4.48,2.73-7.54,2.73-3.79,0-6.78-1.23-8.95-3.69-2.17-2.47-3.26-5.86-3.26-10.17,0-4.66,1.24-8.24,3.71-10.76Z"/>
      <path class="cls-1" d="M192.21,179.92h-5.54v-26.67h5.54v26.67Z"/>
      <path class="cls-1" d="M213.07,168.38c-1.56,1.3-3.79,1.95-6.69,1.95h-5.55v9.59h-5.54v-26.67h11.45c2.64,0,4.74.69,6.31,2.06,1.57,1.37,2.35,3.5,2.35,6.39,0,3.15-.78,5.37-2.34,6.68ZM208.82,158.77c-.71-.59-1.69-.89-2.97-.89h-5.02v7.85h5.02c1.27,0,2.26-.32,2.97-.96.71-.64,1.06-1.65,1.06-3.04s-.35-2.38-1.06-2.97Z"/>
      <path class="cls-1" d="M218.5,153.26h5.57v21.87h13.32v4.79h-18.89v-26.67Z"/>
      <path class="cls-1" d="M246.01,179.92h-5.54v-26.67h5.54v26.67Z"/>
      <path class="cls-1" d="M249.09,153.26h5.84l10.59,18.59v-18.59h5.19v26.67h-5.57l-10.86-18.92v18.92h-5.19v-26.67Z"/>
      <path class="cls-1" d="M283.32,153.26h6.31l9.44,26.67h-6.04l-1.76-5.48h-9.82l-1.81,5.48h-5.83l9.52-26.67ZM282.95,169.85h6.83l-3.37-10.49-3.46,10.49Z"/>
      <path class="cls-1" d="M319.11,153.94c.98.42,1.81,1.04,2.5,1.86.56.68,1.01,1.42,1.34,2.24s.49,1.75.49,2.8c0,1.27-.32,2.51-.96,3.74-.64,1.22-1.69,2.09-3.17,2.6,1.23.49,2.1,1.2,2.61,2.11.51.91.77,2.3.77,4.17v1.79c0,1.22.05,2.04.15,2.48.15.69.49,1.19,1.03,1.52v.67h-6.15c-.17-.59-.29-1.07-.36-1.43-.14-.75-.22-1.51-.24-2.3l-.04-2.48c-.02-1.7-.32-2.83-.88-3.4s-1.62-.85-3.17-.85h-5.44v10.46h-5.45v-26.67h12.76c1.82.04,3.23.27,4.21.69ZM307.59,157.89v7.16h6c1.19,0,2.08-.14,2.68-.43,1.05-.51,1.58-1.51,1.58-3,0-1.62-.51-2.7-1.53-3.26-.57-.31-1.43-.47-2.58-.47h-6.15Z"/>
      <path class="cls-1" d="M341.28,153.26h6.31l-8.92,16.67v10h-5.57v-10l-9.23-16.67h6.57l5.54,11.61,5.3-11.61Z"/>
      <path class="cls-1" d="M396.56,153.83c1.87.62,3.39,1.74,4.54,3.38.93,1.33,1.56,2.76,1.9,4.31.34,1.54.51,3.02.51,4.41,0,3.55-.71,6.55-2.14,9.01-1.93,3.32-4.91,4.98-8.94,4.98h-11.5v-26.67h11.5c1.65.02,3.03.22,4.13.58ZM386.34,157.89v17.4h5.15c2.63,0,4.47-1.3,5.51-3.89.57-1.42.85-3.12.85-5.08,0-2.71-.43-4.8-1.28-6.25-.85-1.45-2.55-2.18-5.08-2.18h-5.15Z"/>
      <path class="cls-1" d="M426.16,157.98h-14.11v5.66h12.95v4.63h-12.95v6.86h14.76v4.79h-20.21v-26.67h19.56v4.72Z"/>
      <path class="cls-1" d="M435.22,171.69c.17,1.22.51,2.13,1.02,2.73.92,1.1,2.51,1.65,4.75,1.65,1.34,0,2.43-.14,3.27-.43,1.59-.55,2.38-1.59,2.38-3.09,0-.88-.39-1.56-1.17-2.04-.78-.47-2.01-.89-3.7-1.25l-2.89-.63c-2.84-.63-4.79-1.31-5.85-2.04-1.8-1.23-2.7-3.15-2.7-5.77,0-2.39.88-4.37,2.64-5.95,1.76-1.58,4.34-2.37,7.75-2.37,2.84,0,5.27.75,7.28,2.23,2.01,1.49,3.06,3.65,3.16,6.49h-5.36c-.1-1.6-.82-2.74-2.15-3.42-.89-.45-2-.67-3.32-.67-1.47,0-2.65.29-3.52.87s-1.32,1.39-1.32,2.42c0,.95.43,1.66,1.3,2.13.56.31,1.74.68,3.54,1.1l4.68,1.1c2.05.48,3.59,1.13,4.61,1.94,1.59,1.25,2.38,3.07,2.38,5.45s-.94,4.46-2.83,6.07c-1.88,1.61-4.54,2.42-7.98,2.42s-6.27-.79-8.28-2.38c-2.01-1.59-3.02-3.77-3.02-6.54h5.32Z"/>
      <path class="cls-1" d="M460.63,179.92h-5.54v-26.67h5.54v26.67Z"/>
      <path class="cls-1" d="M482.93,161.58c-.42-1.82-1.45-3.09-3.09-3.82-.92-.4-1.94-.6-3.06-.6-2.15,0-3.91.81-5.29,2.43-1.38,1.62-2.07,4.05-2.07,7.3s.75,5.59,2.24,6.95c1.5,1.36,3.2,2.04,5.1,2.04s3.4-.54,4.6-1.61c1.19-1.07,1.93-2.48,2.21-4.22h-6.17v-4.45h11.11v14.31h-3.69l-.56-3.33c-1.07,1.26-2.04,2.15-2.89,2.67-1.47.9-3.28,1.35-5.43,1.35-3.53,0-6.43-1.22-8.68-3.67-2.35-2.46-3.53-5.82-3.53-10.09s1.19-7.77,3.56-10.38c2.38-2.6,5.52-3.91,9.43-3.91,3.39,0,6.11.86,8.17,2.58,2.06,1.72,3.24,3.86,3.54,6.43h-5.48Z"/>
      <path class="cls-1" d="M491.59,153.26h5.84l10.59,18.59v-18.59h5.19v26.67h-5.57l-10.86-18.92v18.92h-5.19v-26.67Z"/>
      <path class="cls-1" d="M535.85,157.98h-14.11v5.66h12.95v4.63h-12.95v6.86h14.76v4.79h-20.21v-26.67h19.56v4.72Z"/>
      <path class="cls-1" d="M556.55,153.94c.98.42,1.81,1.04,2.5,1.86.56.68,1.01,1.42,1.34,2.24s.49,1.75.49,2.8c0,1.27-.32,2.51-.96,3.74-.64,1.22-1.69,2.09-3.17,2.6,1.23.49,2.1,1.2,2.61,2.11.51.91.77,2.3.77,4.17v1.79c0,1.22.05,2.04.15,2.48.15.69.49,1.19,1.03,1.52v.67h-6.15c-.17-.59-.29-1.07-.36-1.43-.14-.75-.22-1.51-.24-2.3l-.04-2.48c-.02-1.7-.32-2.83-.88-3.4s-1.62-.85-3.17-.85h-5.44v10.46h-5.45v-26.67h12.76c1.82.04,3.23.27,4.21.69ZM545.04,157.89v7.16h6c1.19,0,2.08-.14,2.68-.43,1.05-.51,1.58-1.51,1.58-3,0-1.62-.51-2.7-1.53-3.26-.57-.31-1.43-.47-2.58-.47h-6.15Z"/>
      <path class="cls-1" d="M5.54,298.04H0v-26.67h5.54v26.67Z"/>
      <path class="cls-1" d="M8.63,271.37h5.84l10.59,18.59v-18.59h5.19v26.67h-5.57l-10.86-18.92v18.92h-5.19v-26.67Z"/>
      <path class="cls-1" d="M33.33,271.4h19.01v4.69h-13.48v6.13h11.81v4.63h-11.81v11.18h-5.54v-26.63Z"/>
      <path class="cls-1" d="M75.3,295.67c-2.01,2.07-4.93,3.11-8.74,3.11s-6.72-1.04-8.74-3.11c-2.7-2.54-4.05-6.21-4.05-11s1.35-8.55,4.05-11c2.01-2.07,4.93-3.11,8.74-3.11s6.72,1.04,8.74,3.11c2.69,2.45,4.03,6.11,4.03,11s-1.34,8.46-4.03,11ZM71.82,291.61c1.3-1.63,1.94-3.94,1.94-6.95s-.65-5.3-1.94-6.94c-1.3-1.63-3.05-2.45-5.26-2.45s-3.97.81-5.28,2.44c-1.31,1.63-1.97,3.94-1.97,6.95s.66,5.32,1.97,6.95c1.31,1.63,3.08,2.44,5.28,2.44s3.96-.81,5.26-2.44Z"/>
      <path class="cls-1" d="M82.99,274.6c.95-2.22,2.35-4.61,4.18-7.16h3.89l-1.1,2.03c-1.52,2.79-2.58,5.71-3.17,8.76-.39,2-.58,4.19-.58,6.55,0,3.69.54,7.09,1.61,10.19.63,1.83,1.74,4.19,3.33,7.06h-3.82l-1.28-1.75c-.83-1.06-1.72-2.64-2.66-4.74-1.68-3.75-2.51-7.44-2.51-11.07,0-3.3.71-6.59,2.12-9.84Z"/>
      <path class="cls-1" d="M101.7,271.37h6.31l9.43,26.67h-6.04l-1.76-5.48h-9.82l-1.81,5.48h-5.83l9.52-26.67ZM101.33,287.96h6.83l-3.37-10.49-3.46,10.49Z"/>
      <path class="cls-1" d="M134.12,271.37v4.72h-7.98v21.95h-5.61v-21.95h-8.01v-4.72h21.6Z"/>
      <path class="cls-1" d="M143.19,274.58c1.41,3.26,2.11,6.54,2.11,9.84,0,3.63-.84,7.32-2.51,11.07-.94,2.1-1.82,3.68-2.65,4.74l-1.28,1.75h-3.81c1.59-2.87,2.69-5.22,3.32-7.06,1.07-3.1,1.6-6.49,1.6-10.19,0-2.36-.19-4.55-.58-6.55-.59-3.05-1.64-5.97-3.15-8.76l-1.1-2.03h3.88c1.83,2.56,3.22,4.95,4.17,7.16Z"/>
      <g>
        <path class="cls-1" d="M485.24,121.88c-2.02,2.08-4.94,3.12-8.76,3.12s-6.74-1.04-8.76-3.12c-2.71-2.55-4.06-6.23-4.06-11.03s1.35-8.57,4.06-11.03c2.02-2.08,4.94-3.12,8.76-3.12s6.74,1.04,8.76,3.12c2.7,2.45,4.04,6.13,4.04,11.03s-1.35,8.47-4.04,11.03ZM481.75,117.82c1.3-1.63,1.95-3.95,1.95-6.96s-.65-5.32-1.95-6.95c-1.3-1.64-3.06-2.46-5.27-2.46s-3.98.82-5.29,2.45c-1.32,1.63-1.98,3.95-1.98,6.96s.66,5.33,1.98,6.96c1.32,1.63,3.08,2.45,5.29,2.45s3.97-.82,5.27-2.45ZM470.48,89.93h4.73v4.3h-4.73v-4.3ZM477.73,89.93h4.73v4.3h-4.73v-4.3Z"/>
        <path class="cls-1" d="M507.35,98.11c1.88.62,3.39,1.75,4.56,3.39.93,1.33,1.57,2.77,1.91,4.32.34,1.55.51,3.02.51,4.42,0,3.55-.71,6.56-2.14,9.03-1.94,3.32-4.92,4.99-8.97,4.99h-11.52v-26.73h11.52c1.66.02,3.04.22,4.14.58ZM497.11,102.17v17.44h5.16c2.64,0,4.48-1.3,5.52-3.9.57-1.43.85-3.13.85-5.1,0-2.72-.43-4.81-1.28-6.27-.85-1.46-2.55-2.19-5.09-2.19h-5.16Z"/>
        <path class="cls-1" d="M536.42,102.26h-14.14v5.68h12.98v4.64h-12.98v6.87h14.8v4.81h-20.26v-26.73h19.6v4.73Z"/>
        <path class="cls-1" d="M556.69,98.22c.98.42,1.82,1.05,2.5,1.87.57.68,1.01,1.43,1.34,2.25s.5,1.76.5,2.81c0,1.27-.32,2.52-.96,3.74-.64,1.23-1.7,2.09-3.17,2.6,1.23.5,2.11,1.2,2.62,2.11.51.91.77,2.31.77,4.18v1.8c0,1.22.05,2.05.15,2.48.15.69.49,1.2,1.03,1.52v.67h-6.17c-.17-.59-.29-1.07-.36-1.43-.15-.75-.22-1.52-.24-2.3l-.04-2.48c-.02-1.7-.32-2.84-.88-3.41s-1.63-.85-3.18-.85h-5.45v10.48h-5.46v-26.73h12.78c1.83.04,3.23.27,4.22.69ZM545.15,102.17v7.18h6.01c1.19,0,2.09-.15,2.69-.44,1.06-.51,1.58-1.51,1.58-3.01,0-1.62-.51-2.71-1.53-3.26-.57-.31-1.44-.47-2.58-.47h-6.17Z"/>
      </g>
      <path class="cls-1" d="M9.81,212.29h6.31l9.43,26.67h-6.04l-1.76-5.48H7.93l-1.81,5.48H.29l9.52-26.67ZM9.45,228.88h6.83l-3.37-10.49-3.46,10.49Z"/>
      <path class="cls-1" d="M45.6,212.97c.98.42,1.81,1.04,2.5,1.86.56.68,1.01,1.42,1.34,2.24s.49,1.75.49,2.8c0,1.27-.32,2.51-.96,3.74-.64,1.22-1.69,2.09-3.17,2.6,1.23.49,2.1,1.2,2.61,2.11.51.91.77,2.3.77,4.17v1.79c0,1.22.05,2.04.15,2.48.15.69.49,1.19,1.03,1.52v.67h-6.15c-.17-.59-.29-1.07-.36-1.43-.14-.75-.22-1.51-.24-2.3l-.04-2.48c-.02-1.7-.32-2.83-.88-3.4s-1.62-.85-3.17-.85h-5.44v10.46h-5.45v-26.67h12.76c1.82.04,3.23.27,4.21.69ZM34.08,216.92v7.16h6c1.19,0,2.08-.14,2.68-.43,1.05-.51,1.58-1.51,1.58-3,0-1.62-.51-2.7-1.53-3.26-.57-.31-1.43-.47-2.58-.47h-6.15Z"/>
      <path class="cls-1" d="M75.04,212.29v4.72h-7.98v21.95h-5.61v-21.95h-8.01v-4.72h21.6Z"/>
      <path class="cls-1" d="M78.95,211.47h4.29l-10.38,27.48h-4.25l10.34-27.48Z"/>
      <path class="cls-1" d="M85.4,215.07c2.15-2.19,4.88-3.29,8.2-3.29,4.44,0,7.68,1.47,9.74,4.41,1.13,1.65,1.74,3.31,1.83,4.98h-5.57c-.35-1.28-.81-2.24-1.36-2.89-.99-1.16-2.46-1.74-4.41-1.74s-3.55.82-4.7,2.45c-1.15,1.63-1.72,3.95-1.72,6.94s.6,5.23,1.81,6.72c1.21,1.49,2.75,2.23,4.61,2.23s3.37-.64,4.37-1.92c.55-.69,1.01-1.72,1.38-3.09h5.54c-.48,2.91-1.7,5.27-3.66,7.09-1.96,1.82-4.48,2.73-7.54,2.73-3.79,0-6.78-1.23-8.95-3.69-2.17-2.47-3.26-5.86-3.26-10.17,0-4.66,1.24-8.24,3.71-10.76Z"/>
      <path class="cls-1" d="M125.2,212.97c.98.42,1.81,1.04,2.5,1.86.56.68,1.01,1.42,1.34,2.24s.49,1.75.49,2.8c0,1.27-.32,2.51-.96,3.74-.64,1.22-1.69,2.09-3.17,2.6,1.23.49,2.1,1.2,2.61,2.11.51.91.77,2.3.77,4.17v1.79c0,1.22.05,2.04.15,2.48.15.69.49,1.19,1.03,1.52v.67h-6.15c-.17-.59-.29-1.07-.36-1.43-.14-.75-.22-1.51-.24-2.3l-.04-2.48c-.02-1.7-.32-2.83-.88-3.4s-1.62-.85-3.17-.85h-5.44v10.46h-5.45v-26.67h12.76c1.82.04,3.23.27,4.21.69ZM113.69,216.92v7.16h6c1.19,0,2.08-.14,2.68-.43,1.05-.51,1.58-1.51,1.58-3,0-1.62-.51-2.7-1.53-3.26-.57-.31-1.43-.47-2.58-.47h-6.15Z"/>
      <path class="cls-1" d="M152.61,217.01h-14.11v5.66h12.95v4.63h-12.95v6.86h14.76v4.79h-20.21v-26.67h19.56v4.72Z"/>
      <path class="cls-1" d="M165.86,212.29h6.31l9.43,26.67h-6.04l-1.76-5.48h-9.82l-1.81,5.48h-5.83l9.52-26.67ZM165.49,228.88h6.83l-3.37-10.49-3.46,10.49Z"/>
      <path class="cls-1" d="M198.22,212.29v4.72h-7.98v21.95h-5.61v-21.95h-8.01v-4.72h21.6Z"/>
      <path class="cls-1" d="M206.84,238.95h-5.54v-26.67h5.54v26.67Z"/>
      <path class="cls-1" d="M227.5,212.29h5.79l-9.09,26.67h-5.26l-9.02-26.67h5.95l5.79,20.24,5.84-20.24Z"/>
      <path class="cls-1" d="M255.93,217.01h-14.11v5.66h12.95v4.63h-12.95v6.86h14.76v4.79h-20.21v-26.67h19.56v4.72Z"/>
      <path class="cls-1" d="M394.97,212.86c1.87.61,3.38,1.74,4.53,3.37.93,1.32,1.56,2.76,1.9,4.3.34,1.54.51,3.01.51,4.4,0,3.54-.71,6.53-2.13,8.99-1.93,3.31-4.9,4.96-8.92,4.96h-11.47v-26.6h11.47c1.65.02,3.02.22,4.12.58ZM384.78,216.9v17.36h5.13c2.63,0,4.46-1.29,5.49-3.88.57-1.42.85-3.11.85-5.07,0-2.71-.43-4.79-1.27-6.24-.85-1.45-2.54-2.18-5.07-2.18h-5.13Z"/>
      <path class="cls-1" d="M410.5,238.89h-5.52v-26.6h5.52v26.6Z"/>
      <path class="cls-1" d="M430.5,212.97c.98.42,1.81,1.04,2.49,1.86.56.67,1.01,1.42,1.34,2.24s.49,1.75.49,2.8c0,1.26-.32,2.51-.96,3.73-.64,1.22-1.69,2.08-3.16,2.59,1.23.49,2.1,1.19,2.61,2.1.51.91.77,2.3.77,4.16v1.79c0,1.22.05,2.04.15,2.47.15.69.49,1.19,1.03,1.52v.67h-6.14c-.17-.59-.29-1.06-.36-1.43-.14-.75-.22-1.51-.23-2.29l-.04-2.47c-.02-1.7-.32-2.83-.88-3.39s-1.62-.85-3.17-.85h-5.43v10.43h-5.43v-26.6h12.72c1.82.04,3.22.26,4.2.69ZM419.01,216.9v7.15h5.98c1.19,0,2.08-.14,2.67-.43,1.05-.51,1.58-1.5,1.58-3,0-1.61-.51-2.7-1.53-3.25-.57-.31-1.43-.47-2.57-.47h-6.14Z"/>
      <path class="cls-1" d="M457.83,216.99h-14.08v5.65h12.92v4.62h-12.92v6.84h14.73v4.78h-20.16v-26.6h19.51v4.71Z"/>
      <path class="cls-1" d="M465.25,215.06c2.14-2.19,4.87-3.28,8.18-3.28,4.43,0,7.67,1.47,9.71,4.4,1.13,1.65,1.74,3.3,1.82,4.96h-5.56c-.35-1.28-.81-2.24-1.36-2.89-.99-1.15-2.46-1.73-4.4-1.73s-3.54.82-4.69,2.45c-1.14,1.63-1.71,3.94-1.71,6.92s.6,5.22,1.81,6.7c1.21,1.49,2.74,2.23,4.6,2.23s3.36-.64,4.36-1.91c.55-.69,1.01-1.71,1.38-3.09h5.52c-.48,2.9-1.69,5.26-3.65,7.07-1.96,1.82-4.47,2.73-7.53,2.73-3.79,0-6.76-1.23-8.93-3.68-2.17-2.47-3.25-5.85-3.25-10.14,0-4.64,1.23-8.22,3.7-10.74Z"/>
      <path class="cls-1" d="M509.58,212.28v4.71h-7.96v21.89h-5.59v-21.89h-8v-4.71h21.55Z"/>
      <path class="cls-1" d="M532.59,236.52c-2.01,2.07-4.92,3.1-8.72,3.1s-6.71-1.03-8.72-3.1c-2.7-2.54-4.04-6.2-4.04-10.97s1.35-8.53,4.04-10.97c2.01-2.07,4.92-3.1,8.72-3.1s6.71,1.03,8.72,3.1c2.68,2.44,4.02,6.1,4.02,10.97s-1.34,8.43-4.02,10.97ZM529.12,232.48c1.29-1.62,1.94-3.93,1.94-6.93s-.65-5.29-1.94-6.92c-1.29-1.63-3.04-2.45-5.24-2.45s-3.96.81-5.27,2.44c-1.31,1.62-1.97,3.93-1.97,6.93s.66,5.31,1.97,6.93c1.31,1.62,3.07,2.44,5.27,2.44s3.95-.81,5.24-2.44Z"/>
      <path class="cls-1" d="M556.57,212.97c.98.42,1.81,1.04,2.49,1.86.56.67,1.01,1.42,1.34,2.24s.49,1.75.49,2.8c0,1.26-.32,2.51-.96,3.73-.64,1.22-1.69,2.08-3.16,2.59,1.23.49,2.1,1.19,2.61,2.1.51.91.77,2.3.77,4.16v1.79c0,1.22.05,2.04.15,2.47.15.69.49,1.19,1.03,1.52v.67h-6.14c-.17-.59-.29-1.06-.36-1.43-.14-.75-.22-1.51-.23-2.29l-.04-2.47c-.02-1.7-.32-2.83-.88-3.39s-1.62-.85-3.17-.85h-5.43v10.43h-5.43v-26.6h12.72c1.82.04,3.22.26,4.2.69ZM545.08,216.9v7.15h5.98c1.19,0,2.08-.14,2.67-.43,1.05-.51,1.58-1.5,1.58-3,0-1.61-.51-2.7-1.53-3.25-.57-.31-1.43-.47-2.57-.47h-6.14Z"/>
      <rect class="cls-1" x="218.24" width="125" height="125" rx="7.5" ry="7.5"/>
      <g>
        <path class="cls-1" d="M474.23,292.69h5.42v5.35h-5.42v-5.35Z"/>
        <g>
          <path class="cls-1" d="M272.65,274.48c.81,1.12,1.21,2.46,1.21,4.03s-.41,2.91-1.22,3.88c-.46.55-1.13,1.05-2.01,1.5,1.35.49,2.36,1.26,3.05,2.33s1.03,2.35,1.03,3.87-.39,2.96-1.17,4.21c-.5.82-1.12,1.52-1.87,2.08-.84.64-1.84,1.09-2.98,1.32-1.14.24-2.39.36-3.73.36h-11.88v-26.38h12.75c3.22.05,5.5.98,6.84,2.81ZM258.33,276.25v5.82h6.41c1.15,0,2.07-.22,2.79-.65.71-.44,1.07-1.21,1.07-2.32,0-1.23-.47-2.04-1.42-2.43-.81-.27-1.85-.41-3.12-.41h-5.74ZM258.33,286.43v7.03h6.4c1.14,0,2.03-.15,2.67-.47,1.16-.57,1.73-1.67,1.73-3.29,0-1.37-.56-2.31-1.68-2.83-.63-.29-1.5-.44-2.64-.45h-6.49Z"/>
          <path class="cls-1" d="M297.1,276.34h-13.96v5.6h12.81v4.58h-12.81v6.78h14.6v4.74h-19.99v-26.38h19.34v4.67Z"/>
          <path class="cls-1" d="M317.57,272.35c.97.42,1.79,1.03,2.47,1.84.56.67,1,1.41,1.33,2.22s.49,1.74.49,2.77c0,1.25-.32,2.48-.95,3.7-.63,1.21-1.68,2.07-3.13,2.57,1.22.49,2.08,1.18,2.59,2.08.51.9.76,2.28.76,4.12v1.77c0,1.21.05,2.02.15,2.45.15.68.48,1.18,1.02,1.5v.66h-6.08c-.17-.58-.29-1.06-.36-1.41-.14-.74-.22-1.5-.23-2.27l-.04-2.45c-.02-1.68-.31-2.8-.87-3.36s-1.61-.84-3.14-.84h-5.38v10.34h-5.39v-26.38h12.62c1.8.04,3.19.26,4.16.68ZM306.18,276.25v7.09h5.93c1.18,0,2.06-.14,2.65-.43,1.04-.5,1.56-1.49,1.56-2.97,0-1.6-.5-2.67-1.51-3.22-.57-.31-1.42-.47-2.55-.47h-6.08Z"/>
          <path class="cls-1" d="M325.34,271.67h5.42v10.87l10.19-10.87h7.12l-10.82,10.85,11.38,15.53h-7.09l-8.13-11.51-2.65,2.69v8.82h-5.42v-26.38Z"/>
          <path class="cls-1" d="M371.02,276.3h-13.96v5.6h12.81v4.58h-12.81v6.78h14.6v4.74h-19.99v-26.38h19.34v4.67Z"/>
          <path class="cls-1" d="M394.22,295.7c-1.99,2.05-4.87,3.08-8.64,3.08s-6.65-1.03-8.64-3.08c-2.67-2.52-4.01-6.14-4.01-10.88s1.34-8.46,4.01-10.88c1.99-2.05,4.87-3.08,8.64-3.08s6.65,1.03,8.64,3.08c2.66,2.42,3.99,6.05,3.99,10.88s-1.33,8.36-3.99,10.88ZM390.77,291.69c1.28-1.61,1.92-3.9,1.92-6.87s-.64-5.25-1.92-6.86c-1.28-1.62-3.02-2.42-5.2-2.42s-3.93.81-5.23,2.42c-1.3,1.61-1.95,3.9-1.95,6.87s.65,5.26,1.95,6.87c1.3,1.61,3.04,2.42,5.23,2.42s3.92-.81,5.2-2.42Z"/>
          <path class="cls-1" d="M416.71,272.24c1.85.61,3.35,1.72,4.5,3.35.92,1.31,1.55,2.73,1.88,4.26.33,1.53.5,2.98.5,4.37,0,3.51-.7,6.48-2.11,8.91-1.91,3.28-4.86,4.92-8.85,4.92h-11.37v-26.38h11.37c1.64.02,3,.21,4.08.57ZM406.61,276.25v17.21h5.09c2.6,0,4.42-1.28,5.45-3.85.56-1.41.84-3.08.84-5.03,0-2.68-.42-4.74-1.26-6.18s-2.52-2.16-5.03-2.16h-5.09Z"/>
          <path class="cls-1" d="M445.99,276.34h-13.96v5.6h12.81v4.58h-12.81v6.78h14.6v4.74h-19.99v-26.38h19.34v4.67Z"/>
          <path class="cls-1" d="M466.46,272.35c.97.42,1.79,1.03,2.47,1.84.56.67,1,1.41,1.33,2.22s.49,1.74.49,2.77c0,1.25-.32,2.48-.95,3.7-.63,1.21-1.68,2.07-3.13,2.57,1.22.49,2.08,1.18,2.59,2.08.51.9.76,2.28.76,4.12v1.77c0,1.21.05,2.02.15,2.45.15.68.48,1.18,1.02,1.5v.66h-6.08c-.17-.58-.29-1.06-.36-1.41-.14-.74-.22-1.5-.23-2.27l-.04-2.45c-.02-1.68-.31-2.8-.87-3.36s-1.61-.84-3.14-.84h-5.38v10.34h-5.39v-26.38h12.62c1.8.04,3.19.26,4.16.68ZM455.07,276.25v7.09h5.93c1.18,0,2.06-.14,2.65-.43,1.04-.5,1.56-1.49,1.56-2.97,0-1.6-.5-2.67-1.51-3.22-.57-.31-1.42-.47-2.55-.47h-6.08Z"/>
          <path class="cls-1" d="M484.87,274.42c2.12-2.17,4.83-3.26,8.11-3.26,4.39,0,7.6,1.46,9.63,4.37,1.12,1.63,1.72,3.27,1.81,4.92h-5.51c-.35-1.26-.8-2.22-1.35-2.86-.98-1.15-2.44-1.72-4.36-1.72s-3.51.81-4.65,2.42c-1.13,1.62-1.7,3.9-1.7,6.86s.6,5.17,1.79,6.65c1.2,1.47,2.72,2.21,4.56,2.21s3.33-.63,4.32-1.9c.55-.68,1-1.7,1.37-3.06h5.48c-.47,2.88-1.68,5.21-3.62,7.01-1.94,1.8-4.43,2.7-7.46,2.7-3.75,0-6.7-1.22-8.85-3.65-2.15-2.45-3.22-5.8-3.22-10.06,0-4.6,1.22-8.15,3.66-10.65Z"/>
          <path class="cls-1" d="M528.76,295.7c-1.99,2.05-4.87,3.08-8.64,3.08s-6.65-1.03-8.64-3.08c-2.67-2.52-4.01-6.14-4.01-10.88s1.34-8.46,4.01-10.88c1.99-2.05,4.87-3.08,8.64-3.08s6.65,1.03,8.64,3.08c2.66,2.42,3.99,6.05,3.99,10.88s-1.33,8.36-3.99,10.88ZM525.31,291.69c1.28-1.61,1.92-3.9,1.92-6.87s-.64-5.25-1.92-6.86c-1.28-1.62-3.02-2.42-5.2-2.42s-3.93.81-5.23,2.42c-1.3,1.61-1.95,3.9-1.95,6.87s.65,5.26,1.95,6.87c1.3,1.61,3.04,2.42,5.23,2.42s3.92-.81,5.2-2.42Z"/>
          <path class="cls-1" d="M553.39,271.67h7.93v26.38h-5.14v-17.84c0-.51,0-1.23.02-2.16.01-.92.02-1.64.02-2.14l-5,22.14h-5.36l-4.96-22.14c0,.5,0,1.21.02,2.14.01.92.02,1.64.02,2.16v17.84h-5.14v-26.38h8.02l4.8,20.74,4.77-20.74Z"/>
        </g>
      </g>
    </g>
  </g>
</svg>