<?xml version="1.0" encoding="UTF-8"?>
<svg id="Layer_2" data-name="Layer 2" xmlns="http://www.w3.org/2000/svg" viewBox="0 0 100 100">
  <defs>
    <style>
      .cls-1, .cls-2, .cls-3 {
        stroke-width: 0px;
      }

      .cls-2 {
        fill: #dcdc32;
      }

      .cls-3 {
        fill: #1d1d1b;
      }
    </style>
  </defs>
  <g id="Layer_1-2" data-name="Layer 1">
    <g>
      <g>
        <circle class="cls-1" cx="50" cy="50" r="50"/>
        <circle class="cls-2" cx="49.76" cy="50" r="48.75"/>
      </g>
      <path class="cls-3" d="M71.91,7.82c.03.58.04,1.16.04,1.74,0,6.4-1.5,12.33-4.06,17.21.45.82.39,2.3-.23,3.79-.69,1.65-2.22,2.48-3.37,2.81-.35.1-.64.14-.85.16-.29.33-.66.7-1.12,1.05-.91.7-1.81,1.09-2.47,1.31,1.32-.39,1.72-.29,1.83-.11.29.47-1.08,2.01-2.66,2.86-1.47.79-3.51,1.14-3.88.51-.17-.3.05-.77.35-1.21-.48.41-1.3,1.01-2.47,1.39-.85.28-1.61.34-2.16.35-.56.57-2.27.75-4.18.37-1.38-.28-2.54-.77-3.2-1.31,0,.33-.2.62-.51.85-.31.17-.63.26-.97.26-1.82,0-3.29-2.61-3.29-5.83,0-.3.01-.59.04-.87-.16.65-.24,1.36-.24,2.11,0,.41.03.82.08,1.2.12-.01.36.49.55,1.13.18.62.24,1.16.15,1.25.13.26.28.5.43.71-.41,1.06-1.15,2.22-2.14,3.3-2.08,2.24-4.6,3.36-5.99,2.77-.96,1.53-1.77,3.09-2.46,4.62.54,1.17.55,3.25-.08,5.48-.7,2.49-2,4.42-3.18,4.92-.22,1.15-.44,2.44-.61,3.86.37,1.23.64,4.06.64,7.37,0,2.96-.21,5.55-.53,6.94.77,5.5,2.25,10.03,3.62,13.38-1.21-3.49-2.54-8.58-2.71-14.82-.2-7.52,1.37-13.58,2.69-17.41-.13-.83.04-2.07.5-3.39.6-1.7,1.51-2.99,2.25-3.31-.17-.66-.04-1.69.38-2.77.64-1.62,1.73-2.71,2.42-2.43.27.11.44.41.51.82,1.16-1.42,2.48-2.76,3.97-4,1.1-.91,2.06-1.58,2.68-1.98,1.28-.72,2.56-.97,3.75-.65,2.48.67,4.03,3.68,4.42,7.8.05-.03.1-.05.14-.05.42.02.68,1.4.59,3.07-.09,1.65-.49,2.97-.9,2.98-.19,1.36-.47,2.76-.86,4.19-.29,1.06-.62,2.08-.98,3.05.96-1.8,1.79-3.87,2.4-6.13.77-2.82,1.1-5.57,1.05-8-.02,0-.04.02-.06.02-.41.08-.99-1.19-1.3-2.84-.3-1.62-.23-2.99.16-3.11-.16-.34-.34-.66-.53-.95.48-.11,1.03-.16,1.6-.16,1.08,0,2.05.21,2.73.54,2.55,1.53,4.3,5.28,5.34,9.35.02,0,.03-.02.05-.02.41-.08.99,1.19,1.31,2.84.31,1.64.24,3.04-.17,3.12-.05.01-.11,0-.17-.04.08.85.13,1.67.15,2.44.1,4.08-.63,7.47-1.32,9.78,1.73-3.19,2.82-7.86,2.82-13.07,0-2.35-.22-4.59-.62-6.63-.41-.09-1.07-1.2-1.54-2.65-.48-1.49-.6-2.81-.29-3.08-.68-1.41-1.47-2.57-2.34-3.42.51-.13,1.05-.2,1.62-.2.41,0,.81.04,1.2.11.22-1.06,1.8-1.88,3.73-1.88,1.27,0,2.39.36,3.07.9,1.74-1.73,3.24-3.85,4.44-6.26-2.73,1.85-3.45,1.84-3.67,1.62-.64-.63,1.87-4.12,2.16-4.53,1.22-1.69,2.47-2.9,3.36-3.67-.95-1.88-1.07-3.47-1.06-4.4.03-2.05.79-4.8,1.75-4.8.19,0,.37.08.54.23-.19-3.82-1.03-7.4-2.37-10.57Z"/>
    </g>
  </g>
</svg>