<?xml version="1.0" encoding="UTF-8"?>
<svg id="Layer_2" data-name="Layer 2" xmlns="http://www.w3.org/2000/svg" viewBox="0 0 69.75 22.16">
  <defs>
    <style>
      .cls-1 {
        stroke-width: 0px;
      }
    </style>
  </defs>
  <g id="Layer_1-2" data-name="Layer 1">
    <g>
      <path class="cls-1" d="M10.4,12.08c.62-.08,1.09-.33,1.39-.76.17-.23.29-.57.38-1.01.2-.9.01-1.55-.54-1.96s-1.43-.61-2.62-.61c-1.38,0-2.43.37-3.16,1.11-.41.41-.75,1.02-1.01,1.83h-2.46c.46-1.93,1.37-3.28,2.74-4.04s2.85-1.14,4.44-1.14c1.85,0,3.27.35,4.26,1.05s1.34,1.8,1.03,3.28l-1.92,9.04c-.06.27-.05.49.02.66s.29.25.65.25c.12,0,.25,0,.4-.02.15-.02.32-.04.49-.07l-.42,1.95c-.43.12-.75.19-.97.22s-.51.04-.89.04c-.91,0-1.5-.32-1.77-.97-.15-.34-.2-.83-.15-1.45-.69.7-1.6,1.31-2.71,1.83s-2.28.78-3.49.78c-1.46,0-2.55-.44-3.29-1.33-.74-.88-.96-1.99-.68-3.32.31-1.46,1.01-2.58,2.09-3.38s2.38-1.29,3.89-1.48l4.31-.53ZM5.17,19.88c.93,0,1.88-.21,2.84-.64,1.61-.71,2.59-1.88,2.94-3.5l.44-2.12c-.36.21-.81.38-1.35.51s-1.05.23-1.55.29l-1.64.21c-.99.13-1.75.33-2.29.6-.91.46-1.47,1.19-1.68,2.2-.17.76-.02,1.36.45,1.8s1.08.66,1.84.66Z"/>
      <path class="cls-1" d="M19.55,0h2.56l-1.66,7.81c.73-.75,1.54-1.33,2.42-1.72.88-.39,1.79-.59,2.73-.59,1.95,0,3.4.67,4.33,2.01s1.12,3.32.56,5.94c-.53,2.48-1.57,4.54-3.12,6.18s-3.39,2.46-5.52,2.46c-1.19,0-2.13-.29-2.83-.86-.42-.34-.83-.89-1.22-1.64l-.42,2.01h-2.43L19.55,0ZM27.78,13.58c.35-1.65.29-3.02-.19-4.1s-1.41-1.63-2.78-1.63c-1.2,0-2.35.44-3.44,1.33s-1.86,2.35-2.29,4.39c-.31,1.47-.38,2.67-.21,3.59.32,1.73,1.43,2.59,3.33,2.59,1.43,0,2.61-.57,3.56-1.7s1.62-2.63,2.02-4.48Z"/>
      <path class="cls-1" d="M45.63,13.42c-.54,2.53-1.6,4.62-3.18,6.27s-3.67,2.48-6.25,2.48c-2.16,0-3.72-.73-4.67-2.19-.96-1.46-1.18-3.42-.66-5.88.57-2.64,1.68-4.74,3.35-6.3s3.63-2.34,5.89-2.34c2.02,0,3.59.67,4.69,2.02s1.38,3.33.83,5.95ZM42.87,13.49c.31-1.46.33-2.66.06-3.57-.44-1.45-1.57-2.17-3.38-2.17-1.61,0-2.91.62-3.9,1.85s-1.67,2.71-2.04,4.45c-.35,1.67-.28,3.06.21,4.17s1.54,1.67,3.13,1.67c1.75,0,3.09-.66,4.02-1.98s1.57-2.8,1.91-4.42Z"/>
      <path class="cls-1" d="M51.5,5.9l-2.21,10.42c-.17.8-.18,1.46-.03,1.96.26.94,1.04,1.41,2.31,1.41,1.84,0,3.26-.82,4.28-2.46.55-.88.98-2.08,1.3-3.62l1.64-7.71h2.64l-3.33,15.69h-2.49l.51-2.31c-.47.6-1,1.1-1.6,1.51-1.18.82-2.49,1.23-3.93,1.23-2.24,0-3.6-.75-4.09-2.24-.27-.8-.27-1.87.01-3.21l2.27-10.66h2.7Z"/>
      <path class="cls-1" d="M65.51,1.52h2.67l-.94,4.38h2.5l-.45,2.15h-2.5l-2.18,10.24c-.12.55,0,.91.32,1.1.19.11.52.16,1,.16.13,0,.26,0,.41,0s.32-.02.53-.04l-.44,2.08c-.32.09-.65.15-.99.19s-.7.06-1.08.06c-1.23,0-2-.32-2.31-.94-.31-.63-.35-1.45-.14-2.45l2.21-10.39h-2.12l.45-2.15h2.12l.94-4.38Z"/>
    </g>
  </g>
</svg>