<?xml version="1.0" encoding="UTF-8"?>
<svg id="Layer_2" data-name="Layer 2" xmlns="http://www.w3.org/2000/svg" viewBox="0 0 59.53 27.85">
  <defs>
    <style>
      .cls-1 {
        stroke-width: 0px;
      }
    </style>
  </defs>
  <g id="Layer_1-2" data-name="Layer 1">
    <g>
      <path class="cls-1" d="M2.64,16.67c-.11.88-.03,1.55.23,2.02.48.85,1.54,1.27,3.18,1.27.98,0,1.88-.21,2.72-.64.83-.42,1.35-1.08,1.53-1.97.15-.67-.04-1.19-.57-1.54-.33-.21-1.03-.46-2.09-.75l-1.98-.53c-1.27-.33-2.18-.7-2.72-1.11-.99-.71-1.34-1.7-1.07-2.96.31-1.48,1.1-2.69,2.37-3.6s2.8-1.38,4.61-1.38c2.36,0,3.92.69,4.67,2.08.47.88.59,1.83.35,2.84h-2.49c.08-.6-.02-1.14-.29-1.63-.46-.69-1.44-1.04-2.93-1.04-1,0-1.79.19-2.38.57s-.95.88-1.09,1.51c-.15.68.07,1.23.66,1.64.34.24.87.46,1.6.64l1.66.42c1.8.46,2.97.9,3.53,1.33.88.67,1.16,1.73.85,3.18-.29,1.4-1.08,2.6-2.35,3.62s-3,1.52-5.16,1.52c-2.33,0-3.87-.53-4.62-1.59-.75-1.06-.99-2.37-.73-3.93h2.53Z"/>
      <path class="cls-1" d="M18.11,0h2.64l-1.71,8.03c.8-.79,1.48-1.35,2.05-1.67.97-.56,2.08-.83,3.35-.83,2.28,0,3.65.8,4.12,2.39.25.87.22,2.08-.1,3.62l-2.14,10.06h-2.71l2.09-9.89c.24-1.15.28-2,.1-2.53-.3-.86-1.11-1.29-2.43-1.29-1.09,0-2.16.38-3.21,1.13s-1.79,2.17-2.24,4.26l-1.76,8.32h-2.64L18.11,0Z"/>
      <path class="cls-1" d="M43.99,13.42c-.54,2.53-1.6,4.62-3.18,6.27s-3.67,2.48-6.25,2.48c-2.16,0-3.72-.73-4.67-2.19-.96-1.46-1.18-3.42-.66-5.88.57-2.64,1.68-4.74,3.35-6.3s3.63-2.34,5.89-2.34c2.02,0,3.59.67,4.7,2.02s1.38,3.33.83,5.95ZM41.22,13.49c.31-1.46.33-2.66.06-3.57-.44-1.45-1.57-2.17-3.38-2.17-1.61,0-2.91.62-3.9,1.85s-1.67,2.71-2.04,4.45c-.35,1.67-.28,3.06.21,4.17s1.54,1.67,3.13,1.67c1.75,0,3.09-.66,4.02-1.98s1.57-2.8,1.91-4.42Z"/>
      <path class="cls-1" d="M47,5.98h2.56l-.44,2.08c.67-.71,1.37-1.26,2.08-1.66,1.02-.59,2.12-.88,3.33-.88,1.78,0,3.14.68,4.09,2.04.95,1.36,1.15,3.31.62,5.84-.72,3.42-2.13,5.86-4.23,7.32-1.33.93-2.74,1.39-4.25,1.39-1.18,0-2.12-.26-2.81-.78-.41-.29-.83-.8-1.25-1.51l-1.7,8.01h-2.64l4.64-21.87ZM56.5,13.65c.26-1.25.31-2.32.13-3.22-.31-1.73-1.38-2.59-3.19-2.59s-3.27.91-4.34,2.74c-.57.98-1.01,2.22-1.33,3.72-.25,1.21-.29,2.24-.1,3.09.33,1.62,1.41,2.43,3.22,2.43,1.23,0,2.36-.51,3.4-1.55,1.04-1.03,1.77-2.57,2.21-4.62Z"/>
    </g>
  </g>
</svg>