<?xml version="1.0" encoding="UTF-8"?>
<svg id="Layer_2" data-name="Layer 2" xmlns="http://www.w3.org/2000/svg" viewBox="0 0 593.55 1021">
  <defs>
    <style>
      .cls-1 {
        fill: #1d1d1b;
        stroke-width: 0px;
      }
    </style>
  </defs>
  <g id="Layer_1-2" data-name="Layer 1">
    <path class="cls-1" d="M564.91,0c.31,6.98.47,14.01.47,21.09,0,77.44-18.17,149.23-49.15,208.35,5.46,9.97,4.76,27.85-2.78,45.91-8.33,19.97-26.83,30.07-40.83,33.98-4.2,1.17-7.8,1.68-10.29,1.93-3.56,4.02-8.03,8.43-13.57,12.72-10.99,8.52-21.85,13.23-29.9,15.9,16.01-4.76,20.78-3.49,22.1-1.35,3.5,5.68-13.09,24.34-32.23,34.65-17.84,9.61-42.48,13.75-46.92,6.17-2.11-3.6.62-9.34,4.25-14.66-5.79,4.98-15.77,12.27-29.94,16.87-10.34,3.35-19.5,4.16-26.09,4.21-6.83,6.96-27.43,9.05-50.58,4.43-16.69-3.33-30.79-9.37-38.74-15.86-.07,3.95-2.38,7.53-6.13,10.24-3.7,2.02-7.62,3.12-11.7,3.12-21.99,0-39.82-31.62-39.82-70.62,0-3.59.16-7.12.45-10.58-1.89,7.84-2.94,16.47-2.94,25.54,0,5.94.47,11.69,1.31,17.16,1.45,2.26,3.29,6.74,4.85,12.04,1.53,5.2,2.39,9.87,2.43,12.58,1.79,3.77,3.81,7.17,6.03,10.13-5.01,12.87-13.86,26.93-25.94,39.96-25.13,27.11-55.62,40.7-72.53,33.53-11.65,18.58-21.46,37.45-29.77,55.9,6.52,14.18,6.61,39.4-1.01,66.34-8.53,30.17-24.16,53.45-38.52,59.6-2.71,13.87-5.31,29.49-7.42,46.67,4.53,14.84,7.71,49.18,7.71,89.17,0,35.89-2.56,67.2-6.36,83.98,9.27,66.6,27.2,121.45,43.86,161.9-14.68-42.29-30.74-103.87-32.75-179.35-2.43-91.04,16.59-164.38,32.59-210.68-1.53-9.99.47-25.07,6.07-40.99,7.24-20.55,18.29-36.24,27.28-40.03-2.03-7.95-.53-20.5,4.64-33.52,7.78-19.59,20.88-32.78,29.26-29.45,3.26,1.29,5.31,4.91,6.16,9.98,14.09-17.13,30.04-33.42,48.11-48.41,13.28-11.03,24.95-19.07,32.48-23.99,15.48-8.74,30.98-11.77,45.42-7.84,29.98,8.14,48.75,44.51,53.54,94.41.58-.39,1.16-.61,1.75-.57,5.03.27,8.21,16.9,7.11,37.13-1.09,19.99-5.95,36-10.92,36.11-2.25,16.45-5.68,33.44-10.36,50.67-3.46,12.8-7.48,25.13-11.91,36.92,11.61-21.77,21.61-46.86,29.04-74.23,9.29-34.19,13.33-67.4,12.68-96.8-.22.12-.44.23-.68.28-4.95.93-11.99-14.46-15.73-34.37-3.68-19.58-2.78-36.21,1.96-37.64-1.95-4.12-4.09-7.96-6.41-11.46,5.86-1.28,12.42-1.98,19.36-1.98,13.03,0,24.77,2.51,32.99,6.53,30.86,18.47,52.07,63.9,64.68,113.12.19-.09.38-.2.59-.24,4.95-.95,12.04,14.42,15.85,34.32,3.81,19.9,2.88,36.8-2.06,37.75-.64.12-1.31-.03-2-.43.98,10.25,1.59,20.16,1.82,29.49,1.24,49.44-7.62,90.38-15.93,118.32,20.91-38.56,34.1-95.14,34.1-158.19,0-28.42-2.69-55.52-7.55-80.25-4.99-1.08-12.93-14.51-18.64-32.07-5.87-18.04-7.29-33.98-3.51-37.22-8.18-17.01-17.75-31.09-28.32-41.39,6.16-1.59,12.76-2.45,19.59-2.45,5,0,9.86.48,14.52,1.35,2.62-12.82,21.84-22.77,45.17-22.77,15.35,0,28.91,4.31,37.15,10.91,21.03-20.98,39.25-46.65,53.79-75.82-33.06,22.35-41.77,22.21-44.42,19.58-7.71-7.66,22.64-49.9,26.18-54.78,14.81-20.43,29.91-35.04,40.72-44.42-11.44-22.72-12.97-41.96-12.8-53.31.39-24.76,9.61-58.11,21.22-58.11,2.27,0,4.47,1.01,6.53,2.83-2.34-46.22-12.46-89.6-28.64-127.89Z"/>
  </g>
</svg>