<?xml version="1.0" encoding="UTF-8"?>
<svg id="Layer_2" data-name="Layer 2" xmlns="http://www.w3.org/2000/svg" viewBox="0 0 592.38 1019">
  <defs>
    <style>
      .cls-1 {
        fill: #1d1d1b;
        stroke-width: 0px;
      }
    </style>
  </defs>
  <g id="Layer_1-2" data-name="Layer 1">
    <path class="cls-1" d="M563.8,0c.31,6.96.47,13.98.47,21.05,0,77.28-18.13,148.94-49.06,207.94,5.45,9.95,4.75,27.79-2.77,45.82-8.31,19.93-26.78,30.01-40.75,33.91-4.19,1.17-7.79,1.68-10.27,1.92-3.55,4.02-8.02,8.42-13.54,12.7-10.97,8.5-21.81,13.2-29.84,15.87,15.97-4.75,20.74-3.49,22.06-1.35,3.49,5.67-13.06,24.29-32.17,34.59-17.8,9.59-42.39,13.73-46.83,6.15-2.11-3.59.62-9.32,4.24-14.63-5.78,4.97-15.74,12.25-29.88,16.83-10.32,3.34-19.47,4.15-26.04,4.2-6.82,6.94-27.38,9.03-50.48,4.43-16.66-3.33-30.73-9.35-38.66-15.83-.07,3.94-2.37,7.52-6.12,10.22-3.69,2.01-7.61,3.11-11.68,3.11-21.95,0-39.74-31.55-39.74-70.48,0-3.58.16-7.11.45-10.56-1.89,7.83-2.93,16.44-2.93,25.49,0,4.99.33,9.85.94,14.52,1.45-.17,4.39,5.88,6.63,13.71,2.16,7.53,2.9,14.01,1.77,15.05,1.59,3.14,3.34,6,5.24,8.54-5,12.84-13.83,26.88-25.89,39.88-25.08,27.06-55.52,40.62-72.39,33.46-11.62,18.54-21.42,37.38-29.71,55.79,6.51,14.15,6.59,39.32-1.01,66.21-8.52,30.11-24.12,53.34-38.44,59.48-2.7,13.84-5.3,29.44-7.41,46.58,4.52,14.81,7.69,49.08,7.69,89,0,35.82-2.55,67.07-6.34,83.81,9.26,66.47,27.15,121.22,43.77,161.58-14.65-42.21-30.68-103.66-32.69-179-2.43-90.86,16.55-164.05,32.52-210.27-1.53-9.97.47-25.02,6.06-40.91,7.22-20.51,18.25-36.17,27.23-39.95-2.02-7.93-.53-20.46,4.63-33.45,7.76-19.55,20.84-32.71,29.2-29.39,3.25,1.29,5.3,4.9,6.15,9.96,14.07-17.1,29.98-33.36,48.01-48.32,13.26-11.01,24.9-19.03,32.42-23.94,15.45-8.72,30.92-11.75,45.33-7.83,29.93,8.13,48.66,44.42,53.43,94.23.58-.39,1.16-.6,1.74-.57,5.02.27,8.2,16.86,7.1,37.05-1.09,19.95-5.94,35.92-10.9,36.04-2.25,16.41-5.67,33.37-10.34,50.57-3.45,12.77-7.47,25.08-11.89,36.84,11.59-21.73,21.57-46.77,28.98-74.08,9.27-34.12,13.3-67.26,12.65-96.61-.22.12-.44.23-.68.28-4.94.93-11.97-14.43-15.7-34.31-3.67-19.54-2.77-36.14,1.96-37.57-1.95-4.11-4.08-7.94-6.4-11.43,5.85-1.28,12.39-1.98,19.32-1.98,13.01,0,24.72,2.5,32.92,6.51,30.8,18.43,51.97,63.77,64.55,112.9.19-.09.38-.2.59-.24,4.94-.94,12.02,14.39,15.82,34.25,3.8,19.86,2.88,36.73-2.06,37.67-.63.12-1.3-.03-2-.43.98,10.23,1.58,20.12,1.82,29.43,1.24,49.35-7.61,90.2-15.9,118.08,20.87-38.48,34.04-94.95,34.04-157.88,0-28.37-2.69-55.41-7.54-80.1-4.98-1.07-12.9-14.49-18.6-32.01-5.85-18-7.27-33.92-3.51-37.15-8.16-16.98-17.71-31.02-28.26-41.31,6.15-1.58,12.74-2.45,19.55-2.45,4.99,0,9.84.48,14.49,1.35,2.61-12.79,21.8-22.73,45.08-22.73,15.32,0,28.86,4.3,37.08,10.89,20.99-20.94,39.17-46.56,53.68-75.67-32.99,22.31-41.69,22.17-44.33,19.55-7.69-7.65,22.6-49.8,26.13-54.67,14.78-20.39,29.85-34.97,40.64-44.34-11.42-22.67-12.95-41.87-12.77-53.21.39-24.71,9.59-58,21.17-58,2.27,0,4.46,1.01,6.51,2.82-2.34-46.13-12.43-89.43-28.59-127.64Z"/>
  </g>
</svg>