<?xml version="1.0" encoding="UTF-8"?>
<svg id="Layer_2" data-name="Layer 2" xmlns="http://www.w3.org/2000/svg" viewBox="0 0 30 30">
  <defs>
    <style>
      .cls-1 {
        stroke-width: 0px;
      }
    </style>
  </defs>
  <g id="Layer_1-2" data-name="Layer 1">
    <path class="cls-1" d="M8.86,0C3.98,0,0,3.98,0,8.86v12.27c0,4.89,3.98,8.86,8.86,8.86h12.27c4.89,0,8.86-3.98,8.86-8.86v-12.27c0-4.89-3.98-8.86-8.86-8.86h-12.27ZM8.86,1.36h12.27c4.15,0,7.5,3.35,7.5,7.5v12.27c0,4.15-3.35,7.5-7.5,7.5h-12.27c-4.15,0-7.5-3.35-7.5-7.5v-12.27C1.36,4.71,4.71,1.36,8.86,1.36ZM23.18,5.45c-.75,0-1.36.61-1.36,1.36s.61,1.36,1.36,1.36,1.36-.61,1.36-1.36-.61-1.36-1.36-1.36ZM15,7.5c-4.13,0-7.5,3.37-7.5,7.5s3.37,7.5,7.5,7.5,7.5-3.37,7.5-7.5-3.37-7.5-7.5-7.5ZM15,8.86c3.4,0,6.14,2.74,6.14,6.14s-2.74,6.14-6.14,6.14-6.14-2.74-6.14-6.14,2.74-6.14,6.14-6.14Z"/>
  </g>
</svg>